# xmcd CD Database Entry
#
# Track frame offsets:
# 150
# 28993
# 62064
# 79148
# 96271
# 119893
# 149582
# 176104
# 201328
# 223909
# 244825
# 275956
# 297519
#
# Disc length: 4388 seconds
#
# Revision: 2
# Processed by: cddbd v1.4b41PL1 Copyright (c) Steve Scherf et al.
# Submitted via: tcd 2.0b
#
DISCID=e811220d
DTITLE=Nem ismert
DYEAR=1900
DGENRE=
TTITLE0=1. sáv
TTITLE1=2. sáv
TTITLE2=3. sáv
TTITLE3=4. sáv
TTITLE4=5. sáv
TTITLE5=6. sáv
TTITLE6=7. sáv
TTITLE7=8. sáv
TTITLE8=9. sáv
TTITLE9=10. sáv
TTITLE10=11. sáv
TTITLE11=12. sáv
TTITLE12=13. sáv
EXTD=
EXTT0=
EXTT1=
EXTT2=
EXTT3=
EXTT4=
EXTT5=
EXTT6=
EXTT7=
EXTT8=
EXTT9=
EXTT10=
EXTT11=
EXTT12=
PLAYORDER=
